<?xml version="1.0" encoding="UTF-8"?>
<svg width="88px" height="59px" viewBox="0 0 88 59" version="1.1" xmlns="http://www.w3.org/2000/svg" xmlns:xlink="http://www.w3.org/1999/xlink">
    <title>Brand/Culture/CultureProject 3</title>
    <g id="Page-1" stroke="none" stroke-width="1" fill="none" fill-rule="evenodd">
        <g id="PCCUL000100_컬처서브메인" transform="translate(-764.000000, -2882.000000)">
            <g id="Brand/Culture/CultureProject" transform="translate(764.000000, 2882.000000)">
                <rect id="Rectangle" fill="#FFFFFF" x="0" y="0" width="88" height="59"></rect>
                <g id="Group-3" transform="translate(15.888889, 3.687500)" fill="#000000">
                    <path d="M9.77114031,17.3126979 L8.11434623,17.3126979 C8.11138767,17.3126979 8.11040149,17.3146776 8.10744292,17.3156674 C8.09955343,17.3166573 8.09363631,17.3196269 8.086733,17.3245762 C8.08278825,17.3265559 8.07982969,17.3285357 8.07785732,17.3315052 C8.07489876,17.3344748 8.07095401,17.3344748 8.06799545,17.3384343 L5.92106645,21.2671992 L3.77315127,17.3384343 C3.7711789,17.333485 3.76526178,17.333485 3.76131703,17.3295255 C3.76033084,17.3285357 3.75835847,17.3275458 3.7563861,17.3255661 C3.74948279,17.3196269 3.74257948,17.3166573 3.73271761,17.3156674 C3.73074524,17.3146776 3.72877286,17.3126979 3.72482811,17.3126979 L2.06902022,17.3126979 C2.04140699,17.3126979 2.01872469,17.3354647 2.01872469,17.3631808 L2.01872469,27.8418669 C2.01872469,27.8695831 2.04140699,27.8923499 2.06902022,27.8923499 L3.72482811,27.8923499 C3.75244135,27.8923499 3.77610984,27.8695831 3.77610984,27.8418669 L3.77610984,21.008845 L4.91910051,23.1004248 L5.92106645,24.9326606 L6.9230324,23.1004248 L8.06503689,21.0118146 L8.06503689,27.8418669 C8.06503689,27.8695831 8.08771919,27.8923499 8.11434623,27.8923499 L9.77114031,27.8923499 C9.79875355,27.8923499 9.82143585,27.8695831 9.82143585,27.8418669 L9.82143585,17.3631808 C9.82143585,17.3354647 9.79875355,17.3126979 9.77114031,17.3126979 L9.77114031,17.3126979 Z M9.431892,9.59869817 C9.431892,9.79469098 9.66857687,9.99959255 10.1498361,9.99959255 C10.4880982,9.99959255 10.734645,9.94910956 10.9594956,9.70164389 C10.6527914,9.4442796 10.3441149,9.25917528 9.97528101,9.25917528 C9.61630896,9.25917528 9.431892,9.42349248 9.431892,9.59869817 L9.431892,9.59869817 Z M18.5097429,19.6745101 L15.5215964,19.6745101 C14.648821,19.6745101 13.936794,20.3901809 13.936794,21.2662093 L13.936794,28.6634529 C13.936794,29.5384915 14.648821,30.2541622 15.5215964,30.2541622 L18.5097429,30.2541622 C19.3815321,30.2541622 20.0955315,29.5384915 20.0955315,28.6634529 L20.0955315,21.2662093 C20.0955315,20.3901809 19.3815321,19.6745101 18.5097429,19.6745101 L18.5097429,19.6745101 Z M18.3391325,27.9606504 C18.3391325,28.2536498 18.1014615,28.4912168 17.8095501,28.4912168 L16.220803,28.4912168 C15.9288916,28.4912168 15.693193,28.2536498 15.693193,27.9606504 L15.693193,21.9690118 C15.693193,21.6750226 15.9288916,21.4374555 16.220803,21.4374555 L17.8095501,21.4374555 C18.1014615,21.4374555 18.3391325,21.6750226 18.3391325,21.9690118 L18.3391325,27.9606504 Z M20.8302408,6.34600949 C19.9692996,6.34600949 19.0777866,8.17824526 19.0777866,9.12554383 C19.0777866,9.46506672 19.1902119,9.68085678 19.4466205,9.68085678 C19.723739,9.68085678 20.0925729,9.40270537 20.3795533,8.68307522 L20.6773818,7.94166809 L21.1892128,6.67563375 C21.158641,6.49052944 21.0353677,6.34600949 20.8302408,6.34600949 L20.8302408,6.34600949 Z M37.0234305,37.9800402 C37.2788529,37.9800402 37.4869384,37.8365102 37.5697781,37.6761524 L37.5776676,37.6761524 L37.5776676,37.9285674 L38.1536008,37.9285674 L38.1536008,36.1052404 L37.5559715,36.1052404 L37.5559715,37.0901537 C37.5559715,37.2990147 37.44256,37.4821393 37.2354607,37.4821393 C37.015541,37.4821393 36.9642593,37.2990147 36.9642593,37.0941132 L36.9642593,36.1052404 L36.3636714,36.1052404 L36.3636714,37.2336838 C36.3636714,37.5989431 36.535268,37.9800402 37.0234305,37.9800402 L37.0234305,37.9800402 Z M28.0027785,37.1930994 C28.0027785,37.7385138 28.4623416,37.9978578 28.9731864,37.9978578 C29.2157884,37.9978578 29.44557,37.9374762 29.6220974,37.8167129 C29.8153901,37.6830814 29.9426082,37.4752103 29.9426082,37.18914 C29.9426082,36.9446439 29.8084868,36.7437018 29.6220974,36.6367966 C29.577719,36.6110602 29.5293959,36.5882934 29.4791003,36.5744353 L29.4791003,36.5635468 C29.5313682,36.5467191 29.5787052,36.5219726 29.6220974,36.4922767 C29.7739702,36.389331 29.8735751,36.2180847 29.8735751,35.9963555 C29.8735751,35.7676972 29.7749564,35.5934814 29.6220974,35.4717283 C29.4544457,35.3380968 29.2217055,35.2678166 28.9731864,35.2678166 C28.4948858,35.2678166 28.0727977,35.5271606 28.0727977,36.007244 C28.0727977,36.2923244 28.2434081,36.4833679 28.4662863,36.5675062 L28.4662863,36.5744353 C28.2138225,36.655604 28.0027785,36.8783231 28.0027785,37.1930994 L28.0027785,37.1930994 Z M28.9731864,35.7439405 C29.144783,35.7439405 29.2828491,35.8716328 29.2828491,36.0399094 C29.2828491,36.2052165 29.1516863,36.3477567 28.9731864,36.3477567 C28.7828524,36.3477567 28.6664823,36.2052165 28.6664823,36.0399094 C28.6664823,35.8716328 28.7907418,35.7439405 28.9731864,35.7439405 L28.9731864,35.7439405 Z M28.9731864,36.8159618 C29.1812719,36.8159618 29.3301861,36.9693905 29.3301861,37.167363 C29.3301861,37.376224 29.1852166,37.5118352 28.9731864,37.5118352 C28.7611562,37.5118352 28.6112558,37.376224 28.6112558,37.167363 C28.6112558,36.9664209 28.7611562,36.8159618 28.9731864,36.8159618 L28.9731864,36.8159618 Z M16.1665627,37.9978578 C16.9762222,37.9978578 17.5738515,37.441555 17.5738515,36.6219487 C17.5738515,35.7904641 16.9762222,35.2678166 16.1665627,35.2678166 C15.3608479,35.2678166 14.7632187,35.7904641 14.7632187,36.6219487 C14.7632187,37.441555 15.3608479,37.9978578 16.1665627,37.9978578 L16.1665627,37.9978578 Z M16.1665627,35.8310484 C16.6044297,35.8310484 16.9062029,36.1676017 16.9062029,36.6219487 C16.9062029,37.0901537 16.6004849,37.426707 16.1665627,37.426707 C15.7326404,37.426707 15.429881,37.0901537 15.429881,36.6219487 C15.429881,36.1676017 15.7286957,35.8310484 16.1665627,35.8310484 L16.1665627,35.8310484 Z M31.9494987,36.8456576 L32.9573817,36.8456576 L32.9573817,37.9285674 L33.5806519,37.9285674 L33.5806519,35.337107 L32.9573817,35.337107 L32.9573817,36.3180608 L31.9494987,36.3180608 L31.9494987,35.337107 L31.3262285,35.337107 L31.3262285,37.9285674 L31.9494987,37.9285674 L31.9494987,36.8456576 Z M41.8863184,19.6745101 L36.5254061,19.6745101 C36.4968067,19.6745101 36.472152,19.6982669 36.472152,19.7279627 L36.472152,30.2016995 C36.472152,30.2304055 36.4968067,30.2541622 36.5254061,30.2541622 L41.8863184,30.2541622 C41.915904,30.2541622 41.9395725,30.2304055 41.9395725,30.2016995 L41.9395725,28.5446694 C41.9395725,28.5149735 41.915904,28.4912168 41.8863184,28.4912168 L38.2295372,28.4912168 L38.2295372,25.8463038 L41.2630482,25.8463038 C41.2916476,25.8463038 41.3153161,25.8225471 41.3153161,25.7928512 L41.3153161,24.1358211 C41.3153161,24.1071151 41.2916476,24.0833584 41.2630482,24.0833584 L38.2295372,24.0833584 L38.2295372,21.4374555 L41.8863184,21.4374555 C41.915904,21.4374555 41.9395725,21.4146887 41.9395725,21.3849928 L41.9395725,19.7279627 C41.9395725,19.6982669 41.915904,19.6745101 41.8863184,19.6745101 L41.8863184,19.6745101 Z M34.9928716,37.9879591 C35.5441501,37.9879591 36.0037132,37.606862 36.0037132,37.0099748 C36.0037132,36.4130877 35.5441501,36.0468385 34.9928716,36.0468385 C34.446524,36.0468385 33.9869609,36.4130877 33.9869609,37.0099748 C33.9869609,37.606862 34.446524,37.9879591 34.9928716,37.9879591 L34.9928716,37.9879591 Z M34.9928716,36.5457293 C35.2739349,36.5457293 35.42778,36.7763673 35.42778,37.0099748 C35.42778,37.2445723 35.2778796,37.4821393 34.9968163,37.4821393 C34.7167392,37.4821393 34.5668388,37.2445723 34.5668388,37.0099748 C34.5668388,36.7763673 34.7127945,36.5457293 34.9928716,36.5457293 L34.9928716,36.5457293 Z M55.3211432,15.466604 L45.2827462,15.466604 C44.785708,15.466604 44.3813714,15.8724477 44.3813714,16.3713385 L44.3813714,17.845244 C44.3300896,17.8353453 44.2788079,17.8284163 44.2255538,17.8284163 L34.1871568,17.8284163 C34.1339027,17.8284163 34.0816348,17.8353453 34.0313393,17.845244 L34.0313393,16.3713385 C34.0313393,15.8724477 33.6270027,15.466604 33.1309506,15.466604 L29.6220974,15.466604 L29.6220974,13.4759902 L50.4227526,13.4759902 C50.6594375,13.4759902 50.8675229,13.3166223 50.9306389,13.0869742 L54.3793347,0.672116743 C54.4730224,0.334573578 54.2195724,0 53.8704622,0 L2.35106969,0 C2.00097332,0 1.74850946,0.334573578 1.84219722,0.672116743 L5.28990681,13.0869742 C5.35400896,13.3166223 5.5620944,13.4759902 5.79976546,13.4759902 L26.5994344,13.4759902 L26.5994344,15.466604 L23.0915675,15.466604 C22.5945292,15.466604 22.1911788,15.8724477 22.1911788,16.3713385 L22.1911788,17.845244 C22.1398971,17.8353453 22.0876291,17.8284163 22.0353612,17.8284163 L11.9959781,17.8284163 C11.942724,17.8284163 11.8914423,17.8353453 11.8411467,17.845244 L11.8411467,16.3713385 C11.8411467,15.8724477 11.4358239,15.466604 10.9397718,15.466604 L0.901374873,15.466604 C0.40433665,15.466604 0,15.8724477 0,16.3713385 L0,28.8337093 C0,29.3326001 0.40433665,29.7384438 0.901374873,29.7384438 L10.9397718,29.7384438 C10.9920398,29.7384438 11.0443077,29.7315147 11.0955894,29.722606 L11.0955894,31.1955216 C11.0955894,31.6944124 11.4989398,32.1002561 11.9959781,32.1002561 L22.0353612,32.1002561 C22.5314133,32.1002561 22.9367361,31.6944124 22.9367361,31.1955216 L22.9367361,29.722606 C22.9860455,29.7315147 23.0383134,29.7384438 23.0915675,29.7384438 L26.5994344,29.7384438 L26.5994344,33.0911086 L12.7888724,33.0911086 C12.2918342,33.0911086 11.8874975,33.4979421 11.8874975,33.9958431 L11.8874975,39.2995272 C11.8874975,39.7984179 12.2918342,40.2032718 12.7888724,40.2032718 L26.5994344,40.2032718 L26.5994344,51.625297 L29.6220974,51.625297 L29.6220974,40.2032718 L43.4336457,40.2032718 C43.9296977,40.2032718 44.3340344,39.7984179 44.3340344,39.2995272 L44.3340344,33.9958431 C44.3340344,33.4979421 43.9296977,33.0911086 43.4336457,33.0911086 L29.6220974,33.0911086 L29.6220974,29.7384438 L33.1309506,29.7384438 C33.1832185,29.7384438 33.2354864,29.7315147 33.285782,29.722606 L33.285782,31.1955216 C33.285782,31.6944124 33.6901186,32.1002561 34.1871568,32.1002561 L44.2255538,32.1002561 C44.7216059,32.1002561 45.1269287,31.6944124 45.1269287,31.1955216 L45.1269287,29.722606 C45.1772242,29.7315147 45.2285059,29.7384438 45.2827462,29.7384438 L55.3211432,29.7384438 C55.8171952,29.7384438 56.2225181,29.3326001 56.2225181,28.8337093 L56.2225181,16.3713385 C56.2225181,15.8724477 55.8171952,15.466604 55.3211432,15.466604 L55.3211432,15.466604 Z M11.0955894,28.8337093 C11.0955894,28.9198274 11.0245839,28.9901076 10.9397718,28.9901076 L0.901374873,28.9901076 C0.815576609,28.9901076 0.745557335,28.9198274 0.745557335,28.8337093 L0.745557335,16.3713385 C0.745557335,16.2852204 0.815576609,16.2149402 0.901374873,16.2149402 L10.9397718,16.2149402 C11.0245839,16.2149402 11.0955894,16.2852204 11.0955894,16.3713385 L11.0955894,28.8337093 Z M22.1911788,31.1955216 C22.1911788,31.2816397 22.1201733,31.3519199 22.0353612,31.3519199 L11.9959781,31.3519199 C11.9101798,31.3519199 11.8411467,31.2816397 11.8411467,31.1955216 L11.8411467,18.7331508 C11.8411467,18.6470327 11.9101798,18.5777423 11.9959781,18.5777423 L22.0353612,18.5777423 C22.1201733,18.5777423 22.1911788,18.6470327 22.1911788,18.7331508 L22.1911788,31.1955216 Z M46.5993058,3.20715501 C47.0292833,3.20715501 47.3783935,3.55756639 47.3783935,4.00003499 C47.3783935,4.43260497 47.0292833,4.78202649 46.5993058,4.78202649 C46.1683421,4.78202649 45.8202181,4.43260497 45.8202181,4.00003499 C45.8202181,3.55756639 46.1683421,3.20715501 46.5993058,3.20715501 L46.5993058,3.20715501 Z M33.8262124,3.20715501 C34.2561899,3.20715501 34.6053001,3.55756639 34.6053001,4.00003499 C34.6053001,4.43260497 34.2561899,4.78202649 33.8262124,4.78202649 C33.3952487,4.78202649 33.0471247,4.43260497 33.0471247,4.00003499 C33.0471247,3.55756639 33.3952487,3.20715501 33.8262124,3.20715501 L33.8262124,3.20715501 Z M33.1388401,5.26606933 C33.4573785,5.26606933 33.7335108,5.52343362 33.7335108,5.90453074 C33.7335108,6.02727371 33.7128009,6.15100654 33.6516573,6.29552649 L33.5589558,6.52121518 L32.984995,7.94166809 C32.6980145,8.62071387 32.5638931,8.98102388 32.5135976,9.10475671 C32.3696143,9.50565109 32.5333213,9.84616384 32.8824315,9.84616384 C33.2019561,9.84616384 33.5924861,9.54821518 33.8942593,8.8929261 L35.0757113,5.96590223 C35.2808382,5.47196076 35.5983904,5.26606933 35.8962188,5.26606933 C36.1526274,5.26606933 36.3774781,5.43137639 36.4603178,5.68775082 C36.8607097,5.34822793 37.3113971,5.19380936 37.7108028,5.19380936 C38.3567553,5.19380936 38.8804205,5.5848051 38.8804205,6.26385089 C38.8804205,6.56278941 38.6131639,7.25173382 38.3370315,7.94166809 C38.0500511,8.62071387 37.9159297,8.98102388 37.864648,9.10475671 C37.7216509,9.50565109 37.8853579,9.84616384 38.2344681,9.84616384 C38.5727302,9.84616384 38.9928459,9.51653957 39.3005362,8.77513245 C39.357735,8.65139961 39.4504366,8.41977175 39.6338674,7.97037411 C40.0648311,6.55388065 41.2591035,5.19380936 42.5904559,5.19380936 C43.5746704,5.19380936 44.1397556,5.79069654 44.1397556,6.52121518 C44.1397556,7.24183519 43.5746704,7.80803663 42.9297042,7.80803663 C42.3764533,7.80803663 42.1299065,7.46851374 42.1299065,7.12899085 C42.1299065,6.79936658 42.3656052,6.48063081 42.7955827,6.48063081 C42.8991324,6.48063081 43.0115577,6.51131655 43.1032731,6.56278941 C43.2058365,6.63504938 43.28769,6.60436364 43.2373945,6.49052944 C43.155541,6.30542512 42.9809859,6.2024794 42.7245773,6.2024794 C41.8330643,6.2024794 40.9809988,7.67440517 40.9809988,8.76523382 C40.9809988,9.40270537 41.2788272,9.91743395 42.0273431,9.91743395 C42.8912429,9.91743395 43.5500158,9.51356999 43.9790071,8.72563931 C44.0598744,8.51182898 44.163424,8.25644441 44.2916283,7.94166809 L45.091426,5.96590223 C45.2965528,5.47196076 45.6150912,5.26606933 45.9109473,5.26606933 C46.2294857,5.26606933 46.5066042,5.52343362 46.5066042,5.90453074 C46.5066042,6.02727371 46.4858943,6.15100654 46.4247507,6.29552649 L46.3320491,6.52121518 L45.7580883,7.94166809 C45.4711079,8.62071387 45.3369865,8.98102388 45.286691,9.10475671 C45.1427077,9.50565109 45.3064147,9.84616384 45.6555249,9.84616384 C45.993787,9.84616384 46.4139027,9.51653957 46.7225792,8.77513245 C46.7827366,8.64150099 46.8862862,8.3841367 47.101275,7.85950949 C47.2245483,7.57145946 47.4089653,7.46851374 47.676222,7.55067234 C47.9415063,7.63283094 48.0342078,7.848621 47.9217825,8.13667103 C47.8192191,8.40492381 47.7166556,8.65139961 47.6032441,8.91965239 C47.0292833,10.277744 46.3428972,10.9162054 45.1732795,10.9162054 C44.601291,10.9162054 44.1121423,10.6687397 43.8744713,10.2737845 C43.3064276,10.7469389 42.5924282,10.9874755 41.7502246,10.9874755 C40.7196592,10.9874755 39.9859361,10.5667839 39.6575359,9.90159615 C39.178249,10.5865811 38.5894954,10.9162054 37.7522227,10.9162054 C36.9425632,10.9162054 36.2956245,10.4222639 36.2956245,9.71154252 C36.2956245,9.39280674 36.4396078,8.99191237 36.8705715,7.94166809 C37.0855603,7.41704088 37.2808253,6.9339879 37.2808253,6.75779235 C37.2808253,6.55190092 37.1891099,6.41925932 36.9317151,6.41925932 C36.6654447,6.41925932 36.409036,6.56278941 36.1526274,6.9339879 L35.158551,9.39280674 L34.7887309,10.2876426 C34.6053001,10.7409997 34.2768999,10.9162054 33.9899195,10.9162054 C33.7798616,10.9162054 33.5924861,10.8271177 33.4830194,10.66676 C33.1723705,10.8330569 32.8173432,10.9162054 32.4001861,10.9162054 C31.5905266,10.9162054 30.9445741,10.4222639 30.9445741,9.71154252 C30.9445741,9.39280674 31.0875713,8.99191237 31.5195211,7.94166809 L32.3183326,5.96590223 C32.5234595,5.47196076 32.8419978,5.26606933 33.1388401,5.26606933 L33.1388401,5.26606933 Z M13.4614519,11.1112083 C12.8046514,11.1112083 12.3026822,10.8439454 11.8825666,10.5143211 C11.4111692,10.926104 10.8470703,11.1112083 10.1084162,11.1112083 C8.85793119,11.1112083 8.25241241,10.4014768 8.25241241,9.67095815 C8.25241241,8.91965239 8.89836486,8.16834664 10.1192643,8.16834664 C10.6833632,8.16834664 11.1340507,8.40492381 11.5334564,8.70287247 C11.5847381,8.5801295 11.6458817,8.44550818 11.7080115,8.29207947 L13.0620462,4.94733355 C13.2661869,4.45339209 13.5837391,4.24750066 13.8815675,4.24750066 C14.1991197,4.24750066 14.4762383,4.50486495 14.4762383,4.88497221 C14.4762383,5.00870504 14.4555283,5.13243787 14.3943847,5.27596796 L14.3026694,5.5026465 L12.9792065,8.76523382 C12.8569193,9.06318248 12.7336459,9.33143526 12.6103725,9.55811381 C12.876643,9.75311675 13.1636234,9.87684958 13.4713138,9.87684958 C15.3578894,9.87684958 16.3322421,8.03372532 16.3322421,6.41925932 C16.3322421,4.93644507 15.5225826,3.53677927 13.8717057,3.53677927 C12.712936,3.53677927 11.5541663,4.22671354 11.5541663,5.16312361 C11.5541663,5.63627796 11.789865,5.78079791 11.9022903,5.95501374 C11.9328621,6.00747646 11.9437102,6.05795945 11.9437102,6.13021943 C11.9437102,6.35689798 11.7188595,6.60436364 11.3904593,6.60436364 C10.7543687,6.60436364 10.2622614,5.8421694 10.2622614,5.17302224 C10.2622614,3.46550916 12.0768454,2.36379202 13.9022774,2.36379202 C16.4239575,2.36379202 17.6547188,4.32965926 17.6547188,6.38758372 C17.6547188,8.63160236 16.2089687,11.1112083 13.4614519,11.1112083 L13.4614519,11.1112083 Z M24.3065498,8.13667103 C24.2039863,8.40492381 24.1014229,8.65139961 23.9889976,8.91965239 C23.4140506,10.277744 22.7276645,10.9162054 21.5580467,10.9162054 C21.0047959,10.9162054 20.5225505,10.6796282 20.2760037,10.3084297 C19.8667361,10.7202126 19.3953388,10.9162054 18.9545132,10.9162054 C17.9910085,10.9162054 17.6004785,10.205484 17.6004785,9.28986103 C17.6004785,7.59224657 18.9446513,5.19380936 20.6665337,5.19380936 C21.0767875,5.19380936 21.4663314,5.37891367 21.6300384,5.66696371 C21.8253034,5.38980216 22.0718502,5.26606933 22.2967008,5.26606933 C22.614253,5.26606933 22.8913715,5.52343362 22.8913715,5.90453074 C22.8913715,6.02727371 22.8706616,6.15100654 22.809518,6.29552649 L22.7168164,6.52121518 L22.1428556,7.94166809 C21.8558752,8.62071387 21.72274,8.98102388 21.6714582,9.10475671 C21.5284611,9.50565109 21.6921682,9.84616384 22.0402922,9.84616384 C22.3785543,9.84616384 22.7986699,9.51653957 23.1063603,8.77513245 C23.16849,8.64150099 23.2700673,8.3841367 23.4860422,7.85950949 C23.6093156,7.57145946 23.7937326,7.46851374 24.060003,7.55067234 C24.3272597,7.63283094 24.4199613,7.848621 24.3065498,8.13667103 L24.3065498,8.13667103 Z M25.8992417,4.00003499 C25.0383005,4.00003499 24.5876131,4.66918215 24.5876131,5.24528221 C24.5876131,5.69863931 24.8538835,6.07874657 25.3982587,6.07874657 C25.6536812,6.07874657 26.2690618,6.09953369 26.2690618,6.63504938 C26.2690618,7.03594376 25.9722195,7.41704088 25.0698585,7.41704088 C24.1980692,7.41704088 23.1625729,6.85083944 23.1625729,5.49274788 C23.1625729,3.75355919 24.7010246,2.68351766 26.0846449,2.68351766 C27.2325665,2.68351766 28.2069192,3.40314781 28.2069192,5.10175213 L28.2887727,8.71376096 C29.324269,6.84094082 30.5648922,4.98791792 30.5550303,3.62982636 C30.5441822,3.02205069 30.8725825,2.69341629 31.1999966,2.69341629 C31.5392449,2.69341629 31.8873689,3.0428378 31.8873689,3.77335644 C31.8873689,5.41058928 29.8785061,8.24060661 28.8015899,10.370791 C28.5343332,10.8746311 28.1654993,11.1112083 27.7769417,11.1112083 C27.2128427,11.1112083 26.9455861,10.7617868 26.9357242,10.0520553 L26.8440088,5.4204879 C26.8440088,4.46329072 26.3923352,4.00003499 25.8992417,4.00003499 L25.8992417,4.00003499 Z M43.4336457,33.8404346 C43.519444,33.8404346 43.588477,33.9107149 43.588477,33.9958431 L43.588477,39.2995272 C43.588477,39.3856452 43.519444,39.4559255 43.4336457,39.4559255 L12.7888724,39.4559255 C12.7030741,39.4559255 12.6330548,39.3856452 12.6330548,39.2995272 L12.6330548,33.9958431 C12.6330548,33.9107149 12.7030741,33.8404346 12.7888724,33.8404346 L43.4336457,33.8404346 Z M33.285782,28.8337093 C33.285782,28.9198274 33.2157627,28.9901076 33.1309506,28.9901076 L23.0915675,28.9901076 C23.0057692,28.9901076 22.9367361,28.9198274 22.9367361,28.8337093 L22.9367361,16.3713385 C22.9367361,16.2852204 23.0057692,16.2149402 23.0915675,16.2149402 L33.1309506,16.2149402 C33.2157627,16.2149402 33.285782,16.2852204 33.285782,16.3713385 L33.285782,28.8337093 Z M44.3813714,31.1955216 C44.3813714,31.2816397 44.3103659,31.3519199 44.2255538,31.3519199 L34.1871568,31.3519199 C34.1013586,31.3519199 34.0313393,31.2816397 34.0313393,31.1955216 L34.0313393,18.7331508 C34.0313393,18.6470327 34.1013586,18.5777423 34.1871568,18.5777423 L44.2255538,18.5777423 C44.3103659,18.5777423 44.3813714,18.6470327 44.3813714,18.7331508 L44.3813714,31.1955216 Z M55.4769607,28.8337093 C55.4769607,28.9198274 55.4059553,28.9901076 55.3211432,28.9901076 L45.2827462,28.9901076 C45.1959618,28.9901076 45.1269287,28.9198274 45.1269287,28.8337093 L45.1269287,16.3713385 C45.1269287,16.2852204 45.1959618,16.2149402 45.2827462,16.2149402 L55.3211432,16.2149402 C55.4059553,16.2149402 55.4769607,16.2852204 55.4769607,16.3713385 L55.4769607,28.8337093 Z M52.9769768,26.1294045 L49.3300575,26.1294045 L49.3300575,17.3651606 C49.3300575,17.3364546 49.306389,17.3126979 49.2777896,17.3126979 L47.6269126,17.3126979 C47.5963408,17.3126979 47.5736585,17.3364546 47.5736585,17.3651606 L47.5736585,27.8398872 C47.5736585,27.8685932 47.5963408,27.8923499 47.6269126,27.8923499 L52.9769768,27.8923499 C53.0055762,27.8923499 53.0292447,27.8685932 53.0292447,27.8398872 L53.0292447,26.1818673 C53.0292447,26.1531612 53.0055762,26.1294045 52.9769768,26.1294045 L52.9769768,26.1294045 Z M31.1368806,17.3126979 L25.0836651,17.3126979 C25.0550657,17.3126979 25.0313972,17.3364546 25.0313972,17.3651606 L25.0313972,19.0231805 C25.0313972,19.0518865 25.0550657,19.0756432 25.0836651,19.0756432 L27.2325665,19.0756432 L27.2325665,27.8398872 C27.2325665,27.8685932 27.2552488,27.8923499 27.2858206,27.8923499 L28.9366975,27.8923499 C28.9652969,27.8923499 28.9889654,27.8685932 28.9889654,27.8398872 L28.9889654,19.0756432 L31.1368806,19.0756432 C31.1664662,19.0756432 31.1901347,19.0518865 31.1901347,19.0231805 L31.1901347,17.3651606 C31.1901347,17.3364546 31.1664662,17.3126979 31.1368806,17.3126979 L31.1368806,17.3126979 Z M23.1191807,36.9406845 C23.1191807,36.7318234 23.2286474,36.5486988 23.4406776,36.5486988 C23.6556664,36.5486988 23.7108929,36.7318234 23.7108929,36.9327656 L23.7108929,37.9285674 L24.3124669,37.9285674 L24.3124669,36.8011138 C24.3124669,36.4348646 24.1369256,36.0547574 23.6477769,36.0547574 C23.3962992,36.0547574 23.1882138,36.1972976 23.1053741,36.3586452 L23.0984708,36.3586452 L23.0984708,36.1052404 L22.5185928,36.1052404 L22.5185928,37.9285674 L23.1191807,37.9285674 L23.1191807,36.9406845 Z M21.2543012,37.9879591 C21.6231351,37.9879591 21.9071569,37.8483885 22.0777673,37.5989431 L21.6625826,37.3356397 C21.5827014,37.4455144 21.4515386,37.5256933 21.2612045,37.5256933 C21.0462157,37.5256933 20.8450336,37.3831531 20.8272822,37.1822109 L22.1438418,37.1822109 C22.1477865,37.138657 22.1477865,37.0871841 22.1477865,37.0396707 C22.1477865,36.4170471 21.7720493,36.0468385 21.2355636,36.0468385 C20.6852713,36.0468385 20.2552938,36.4279356 20.2552938,37.0248228 C20.2552938,37.6395275 20.7069674,37.9879591 21.2543012,37.9879591 L21.2543012,37.9879591 Z M21.2395084,36.4615909 C21.4761932,36.4615909 21.596508,36.6179892 21.596508,36.8080429 L20.8272822,36.8080429 C20.842075,36.6219487 21.0097268,36.4615909 21.2395084,36.4615909 L21.2395084,36.4615909 Z M18.5491904,37.7276253 L18.5570799,37.7276253 C18.6695052,37.8850134 18.8844939,37.9800402 19.1073722,37.9800402 C19.6537197,37.9800402 19.9722581,37.5187642 19.9722581,37.0099748 C19.9722581,36.5011854 19.6399131,36.0547574 19.1113169,36.0547574 C18.8450464,36.0547574 18.6409057,36.1824497 18.531439,36.3289493 L18.5205909,36.3289493 L18.5205909,36.1052404 L17.9515611,36.1052404 L17.9515611,38.8065756 L18.5491904,38.8065756 L18.5491904,37.7276253 Z M18.9653613,36.5457293 C19.2493831,36.5457293 19.3923802,36.7763673 19.3923802,37.0099748 C19.3923802,37.2485317 19.2493831,37.4821393 18.9653613,37.4821393 C18.6961322,37.4821393 18.5274942,37.2515013 18.5274942,37.0139343 C18.5274942,36.7832963 18.6961322,36.5457293 18.9653613,36.5457293 L18.9653613,36.5457293 Z M39.2167103,36.9921573 C39.2167103,36.8416982 39.3232185,36.5774049 39.6437292,36.5774049 C39.6910662,36.5774049 39.7423479,36.5823542 39.7965882,36.5962123 L39.8222291,36.0696053 C39.7926435,36.057727 39.7423479,36.0547574 39.695011,36.0547574 C39.4721327,36.0547574 39.2946191,36.1864091 39.2029037,36.3695337 L39.1950142,36.3695337 L39.1950142,36.1052404 L38.619081,36.1052404 L38.619081,37.9285674 L39.2167103,37.9285674 L39.2167103,36.9921573 Z M40.6496399,37.5553892 C40.4740987,37.5553892 40.3103916,37.4672914 40.2038834,37.3504876 L39.8695661,37.7058483 C40.058914,37.8889729 40.3646319,37.9879591 40.660488,37.9879591 C41.0322805,37.9879591 41.4366171,37.8266115 41.4366171,37.3643457 C41.4366171,37.0099748 41.1348439,36.8704042 40.8567392,36.8080429 C40.6239991,36.7575599 40.5253804,36.727864 40.5253804,36.6259081 C40.5253804,36.5199928 40.6387919,36.4794085 40.7512172,36.4794085 C40.8971729,36.4794085 41.0362252,36.5526583 41.1308992,36.6437257 L41.4592994,36.3032129 C41.2798134,36.1359261 40.9997363,36.0468385 40.7305073,36.0468385 C40.3833695,36.0468385 39.9750881,36.223034 39.9750881,36.6585736 C39.9750881,37.0030458 40.2522066,37.1307381 40.5036843,37.18914 C40.7512172,37.2485317 40.8646287,37.2841668 40.8646287,37.398001 C40.8646287,37.5148048 40.7472724,37.5553892 40.6496399,37.5553892 L40.6496399,37.5553892 Z M26.7463763,37.9285674 L27.3183647,37.9285674 L27.3183647,37.4237374 L27.6724058,37.4237374 L27.6724058,36.9258365 L27.3154062,36.9258365 L27.3154062,35.337107 L26.5816831,35.337107 L25.531394,36.9070291 L25.531394,37.4237374 L26.7463763,37.4237374 L26.7463763,37.9285674 Z M26.1260647,36.9258365 L26.5994344,36.1854193 L26.7384868,35.9666596 L26.750321,35.9666596 L26.750321,36.9258365 L26.1260647,36.9258365 Z" id="Fill-1"></path>
                </g>
            </g>
        </g>
    </g>
</svg>